<svg width="1440" height="1024" viewBox="0 0 1440 1024" fill="none" xmlns="http://www.w3.org/2000/svg">
<g clip-path="url(#clip0_4_133)">
<rect width="1440" height="1024" fill="#F5F5F5" fill-opacity="0.48"/>
<rect width="1440" height="1024" fill="#F6F4F0"/>
<rect x="474" y="555" width="465" height="127" rx="9" fill="#01AB08"/>
<path d="M1058.08 446.759L1084.2 253.51H1067.22L1041.11 431.09H1022.84L1020.43 446.759H1058.08Z" fill="#CAAA00"/>
<path d="M534.479 446.759H1020.43L1022.84 431.09H422.658L426.818 446.759H534.479Z" fill="#CAAA00"/>
<path d="M459.086 464.603L581.486 519.881L547.735 467.38L459.086 464.603Z" fill="#DEBC08"/>
<path d="M459.086 464.603L547.735 467.38L534.479 446.759H426.818L427.805 450.477L459.086 464.603Z" fill="#DEBC08"/>
<path d="M1050.23 253.51H375.504L422.658 431.09H1022.84L1050.23 253.51Z" fill="#FFD600"/>
<path d="M1041.11 431.09L1067.22 253.51H1050.23L1022.84 431.09H1041.11Z" fill="#FFD600"/>
<path d="M1067.76 453.614L1133.56 474.541L1074.25 522.356L1067.76 453.614Z" fill="black"/>
<path d="M1070.09 444.272L1082.24 410.892L1105.35 439.983L1070.09 444.272Z" fill="black"/>
<path d="M338.239 186.896L368.288 252.44L296.501 245.691L338.239 186.896Z" fill="black"/>
<path d="M380.348 241.839L380.148 204.275L412.97 223.215L380.348 241.839Z" fill="black"/>
<path d="M321.465 270.18L356.87 263.785L345.307 297.124L321.465 270.18Z" fill="black"/>
<path d="M1017.15 468.648L1049 456.543L1042.37 491.561L1017.15 468.648Z" fill="black"/>
<mask id="path-10-outside-1_4_133" maskUnits="userSpaceOnUse" x="417.963" y="290.51" width="626" height="121" fill="black">
<rect fill="white" x="417.963" y="290.51" width="626" height="121"/>
<path d="M491.424 408.059L478.023 392.004C474.315 392.931 470.522 393.395 466.645 393.395C458.386 393.395 450.801 391.456 443.89 387.58C436.979 383.703 431.501 378.351 427.455 371.524C423.41 364.613 421.387 356.817 421.387 348.137C421.387 339.54 423.41 331.829 427.455 325.002C431.501 318.091 436.979 312.697 443.89 308.82C450.801 304.943 458.386 303.005 466.645 303.005C474.989 303.005 482.574 304.943 489.401 308.82C496.312 312.697 501.748 318.091 505.709 325.002C509.754 331.829 511.777 339.54 511.777 348.137C511.777 355.975 510.092 363.138 506.72 369.628C503.433 376.033 498.925 381.259 493.194 385.304L513.421 408.059H491.424ZM439.592 348.137C439.592 354.036 440.729 359.219 443.005 363.686C445.281 368.153 448.441 371.609 452.486 374.053C456.616 376.412 461.336 377.592 466.645 377.592C471.955 377.592 476.633 376.412 480.678 374.053C484.723 371.609 487.884 368.153 490.159 363.686C492.435 359.219 493.573 354.036 493.573 348.137C493.573 342.237 492.435 337.096 490.159 332.714C487.884 328.247 484.723 324.833 480.678 322.474C476.633 320.114 471.955 318.934 466.645 318.934C461.336 318.934 456.616 320.114 452.486 322.474C448.441 324.833 445.281 328.247 443.005 332.714C440.729 337.096 439.592 342.237 439.592 348.137ZM591.309 322.474V392.51H573.484V383.661C571.208 386.695 568.216 389.097 564.508 390.866C560.884 392.552 556.923 393.395 552.624 393.395C547.146 393.395 542.3 392.257 538.086 389.982C533.872 387.622 530.543 384.208 528.099 379.742C525.739 375.19 524.559 369.797 524.559 363.56V322.474H542.258V361.031C542.258 366.594 543.649 370.892 546.43 373.926C549.211 376.876 553.004 378.351 557.808 378.351C562.696 378.351 566.531 376.876 569.312 373.926C572.093 370.892 573.484 366.594 573.484 361.031V322.474H591.309ZM617.747 314.13C614.629 314.13 612.016 313.161 609.909 311.222C607.886 309.2 606.875 306.713 606.875 303.763C606.875 300.814 607.886 298.37 609.909 296.431C612.016 294.408 614.629 293.397 617.747 293.397C620.866 293.397 623.436 294.408 625.459 296.431C627.566 298.37 628.619 300.814 628.619 303.763C628.619 306.713 627.566 309.2 625.459 311.222C623.436 313.161 620.866 314.13 617.747 314.13ZM626.47 322.474V392.51H608.771V322.474H626.47ZM660.138 377.972H691.364V392.51H640.038V378.224L670.631 337.012H640.164V322.474H690.985V336.759L660.138 377.972ZM795.24 304.269V318.555H771.726V392.51H754.027V318.555H730.513V304.269H795.24ZM817.129 314.13C814.011 314.13 811.398 313.161 809.291 311.222C807.269 309.2 806.257 306.713 806.257 303.763C806.257 300.814 807.269 298.37 809.291 296.431C811.398 294.408 814.011 293.397 817.129 293.397C820.248 293.397 822.818 294.408 824.841 296.431C826.948 298.37 828.001 300.814 828.001 303.763C828.001 306.713 826.948 309.2 824.841 311.222C822.818 313.161 820.248 314.13 817.129 314.13ZM825.852 322.474V392.51H808.154V322.474H825.852ZM930.315 321.462C938.912 321.462 945.823 324.117 951.048 329.427C956.358 334.652 959.012 341.984 959.012 351.424V392.51H941.314V353.826C941.314 348.347 939.923 344.176 937.142 341.31C934.361 338.36 930.568 336.885 925.764 336.885C920.96 336.885 917.125 338.36 914.26 341.31C911.479 344.176 910.088 348.347 910.088 353.826V392.51H892.389V353.826C892.389 348.347 890.999 344.176 888.217 341.31C885.436 338.36 881.644 336.885 876.84 336.885C871.952 336.885 868.075 338.36 865.209 341.31C862.428 344.176 861.037 348.347 861.037 353.826V392.51H843.339V322.474H861.037V330.944C863.313 327.994 866.221 325.676 869.76 323.991C873.384 322.305 877.345 321.462 881.644 321.462C887.122 321.462 892.01 322.642 896.308 325.002C900.607 327.277 903.936 330.564 906.295 334.863C908.571 330.817 911.858 327.572 916.156 325.128C920.539 322.684 925.258 321.462 930.315 321.462ZM1040.91 355.975C1040.91 358.503 1040.74 360.779 1040.41 362.801H989.208C989.629 367.858 991.399 371.819 994.517 374.685C997.636 377.55 1001.47 378.983 1006.02 378.983C1012.6 378.983 1017.27 376.16 1020.05 370.513H1039.14C1037.12 377.255 1033.24 382.818 1027.51 387.2C1021.78 391.499 1014.74 393.648 1006.4 393.648C999.658 393.648 993.59 392.173 988.196 389.223C982.887 386.189 978.715 381.933 975.681 376.455C972.731 370.976 971.256 364.655 971.256 357.492C971.256 350.244 972.731 343.881 975.681 338.402C978.631 332.924 982.76 328.71 988.07 325.76C993.38 322.811 999.49 321.336 1006.4 321.336C1013.06 321.336 1019 322.769 1024.23 325.634C1029.54 328.5 1033.62 332.587 1036.49 337.897C1039.44 343.122 1040.91 349.148 1040.91 355.975ZM1022.58 350.918C1022.5 346.367 1020.85 342.743 1017.65 340.046C1014.45 337.265 1010.53 335.874 1005.9 335.874C1001.51 335.874 997.804 337.222 994.77 339.919C991.82 342.532 990.008 346.198 989.334 350.918H1022.58Z"/>
</mask>
<path d="M491.424 408.059L478.023 392.004C474.315 392.931 470.522 393.395 466.645 393.395C458.386 393.395 450.801 391.456 443.89 387.58C436.979 383.703 431.501 378.351 427.455 371.524C423.41 364.613 421.387 356.817 421.387 348.137C421.387 339.54 423.41 331.829 427.455 325.002C431.501 318.091 436.979 312.697 443.89 308.82C450.801 304.943 458.386 303.005 466.645 303.005C474.989 303.005 482.574 304.943 489.401 308.82C496.312 312.697 501.748 318.091 505.709 325.002C509.754 331.829 511.777 339.54 511.777 348.137C511.777 355.975 510.092 363.138 506.72 369.628C503.433 376.033 498.925 381.259 493.194 385.304L513.421 408.059H491.424ZM439.592 348.137C439.592 354.036 440.729 359.219 443.005 363.686C445.281 368.153 448.441 371.609 452.486 374.053C456.616 376.412 461.336 377.592 466.645 377.592C471.955 377.592 476.633 376.412 480.678 374.053C484.723 371.609 487.884 368.153 490.159 363.686C492.435 359.219 493.573 354.036 493.573 348.137C493.573 342.237 492.435 337.096 490.159 332.714C487.884 328.247 484.723 324.833 480.678 322.474C476.633 320.114 471.955 318.934 466.645 318.934C461.336 318.934 456.616 320.114 452.486 322.474C448.441 324.833 445.281 328.247 443.005 332.714C440.729 337.096 439.592 342.237 439.592 348.137ZM591.309 322.474V392.51H573.484V383.661C571.208 386.695 568.216 389.097 564.508 390.866C560.884 392.552 556.923 393.395 552.624 393.395C547.146 393.395 542.3 392.257 538.086 389.982C533.872 387.622 530.543 384.208 528.099 379.742C525.739 375.19 524.559 369.797 524.559 363.56V322.474H542.258V361.031C542.258 366.594 543.649 370.892 546.43 373.926C549.211 376.876 553.004 378.351 557.808 378.351C562.696 378.351 566.531 376.876 569.312 373.926C572.093 370.892 573.484 366.594 573.484 361.031V322.474H591.309ZM617.747 314.13C614.629 314.13 612.016 313.161 609.909 311.222C607.886 309.2 606.875 306.713 606.875 303.763C606.875 300.814 607.886 298.37 609.909 296.431C612.016 294.408 614.629 293.397 617.747 293.397C620.866 293.397 623.436 294.408 625.459 296.431C627.566 298.37 628.619 300.814 628.619 303.763C628.619 306.713 627.566 309.2 625.459 311.222C623.436 313.161 620.866 314.13 617.747 314.13ZM626.47 322.474V392.51H608.771V322.474H626.47ZM660.138 377.972H691.364V392.51H640.038V378.224L670.631 337.012H640.164V322.474H690.985V336.759L660.138 377.972ZM795.24 304.269V318.555H771.726V392.51H754.027V318.555H730.513V304.269H795.24ZM817.129 314.13C814.011 314.13 811.398 313.161 809.291 311.222C807.269 309.2 806.257 306.713 806.257 303.763C806.257 300.814 807.269 298.37 809.291 296.431C811.398 294.408 814.011 293.397 817.129 293.397C820.248 293.397 822.818 294.408 824.841 296.431C826.948 298.37 828.001 300.814 828.001 303.763C828.001 306.713 826.948 309.2 824.841 311.222C822.818 313.161 820.248 314.13 817.129 314.13ZM825.852 322.474V392.51H808.154V322.474H825.852ZM930.315 321.462C938.912 321.462 945.823 324.117 951.048 329.427C956.358 334.652 959.012 341.984 959.012 351.424V392.51H941.314V353.826C941.314 348.347 939.923 344.176 937.142 341.31C934.361 338.36 930.568 336.885 925.764 336.885C920.96 336.885 917.125 338.36 914.26 341.31C911.479 344.176 910.088 348.347 910.088 353.826V392.51H892.389V353.826C892.389 348.347 890.999 344.176 888.217 341.31C885.436 338.36 881.644 336.885 876.84 336.885C871.952 336.885 868.075 338.36 865.209 341.31C862.428 344.176 861.037 348.347 861.037 353.826V392.51H843.339V322.474H861.037V330.944C863.313 327.994 866.221 325.676 869.76 323.991C873.384 322.305 877.345 321.462 881.644 321.462C887.122 321.462 892.01 322.642 896.308 325.002C900.607 327.277 903.936 330.564 906.295 334.863C908.571 330.817 911.858 327.572 916.156 325.128C920.539 322.684 925.258 321.462 930.315 321.462ZM1040.91 355.975C1040.91 358.503 1040.74 360.779 1040.41 362.801H989.208C989.629 367.858 991.399 371.819 994.517 374.685C997.636 377.55 1001.47 378.983 1006.02 378.983C1012.6 378.983 1017.27 376.16 1020.05 370.513H1039.14C1037.12 377.255 1033.24 382.818 1027.51 387.2C1021.78 391.499 1014.74 393.648 1006.4 393.648C999.658 393.648 993.59 392.173 988.196 389.223C982.887 386.189 978.715 381.933 975.681 376.455C972.731 370.976 971.256 364.655 971.256 357.492C971.256 350.244 972.731 343.881 975.681 338.402C978.631 332.924 982.76 328.71 988.07 325.76C993.38 322.811 999.49 321.336 1006.4 321.336C1013.06 321.336 1019 322.769 1024.23 325.634C1029.54 328.5 1033.62 332.587 1036.49 337.897C1039.44 343.122 1040.91 349.148 1040.91 355.975ZM1022.58 350.918C1022.5 346.367 1020.85 342.743 1017.65 340.046C1014.45 337.265 1010.53 335.874 1005.9 335.874C1001.51 335.874 997.804 337.222 994.77 339.919C991.82 342.532 990.008 346.198 989.334 350.918H1022.58Z" fill="black"/>
<path d="M491.424 408.059L478.023 392.004C474.315 392.931 470.522 393.395 466.645 393.395C458.386 393.395 450.801 391.456 443.89 387.58C436.979 383.703 431.501 378.351 427.455 371.524C423.41 364.613 421.387 356.817 421.387 348.137C421.387 339.54 423.41 331.829 427.455 325.002C431.501 318.091 436.979 312.697 443.89 308.82C450.801 304.943 458.386 303.005 466.645 303.005C474.989 303.005 482.574 304.943 489.401 308.82C496.312 312.697 501.748 318.091 505.709 325.002C509.754 331.829 511.777 339.54 511.777 348.137C511.777 355.975 510.092 363.138 506.72 369.628C503.433 376.033 498.925 381.259 493.194 385.304L513.421 408.059H491.424ZM439.592 348.137C439.592 354.036 440.729 359.219 443.005 363.686C445.281 368.153 448.441 371.609 452.486 374.053C456.616 376.412 461.336 377.592 466.645 377.592C471.955 377.592 476.633 376.412 480.678 374.053C484.723 371.609 487.884 368.153 490.159 363.686C492.435 359.219 493.573 354.036 493.573 348.137C493.573 342.237 492.435 337.096 490.159 332.714C487.884 328.247 484.723 324.833 480.678 322.474C476.633 320.114 471.955 318.934 466.645 318.934C461.336 318.934 456.616 320.114 452.486 322.474C448.441 324.833 445.281 328.247 443.005 332.714C440.729 337.096 439.592 342.237 439.592 348.137ZM591.309 322.474V392.51H573.484V383.661C571.208 386.695 568.216 389.097 564.508 390.866C560.884 392.552 556.923 393.395 552.624 393.395C547.146 393.395 542.3 392.257 538.086 389.982C533.872 387.622 530.543 384.208 528.099 379.742C525.739 375.19 524.559 369.797 524.559 363.56V322.474H542.258V361.031C542.258 366.594 543.649 370.892 546.43 373.926C549.211 376.876 553.004 378.351 557.808 378.351C562.696 378.351 566.531 376.876 569.312 373.926C572.093 370.892 573.484 366.594 573.484 361.031V322.474H591.309ZM617.747 314.13C614.629 314.13 612.016 313.161 609.909 311.222C607.886 309.2 606.875 306.713 606.875 303.763C606.875 300.814 607.886 298.37 609.909 296.431C612.016 294.408 614.629 293.397 617.747 293.397C620.866 293.397 623.436 294.408 625.459 296.431C627.566 298.37 628.619 300.814 628.619 303.763C628.619 306.713 627.566 309.2 625.459 311.222C623.436 313.161 620.866 314.13 617.747 314.13ZM626.47 322.474V392.51H608.771V322.474H626.47ZM660.138 377.972H691.364V392.51H640.038V378.224L670.631 337.012H640.164V322.474H690.985V336.759L660.138 377.972ZM795.24 304.269V318.555H771.726V392.51H754.027V318.555H730.513V304.269H795.24ZM817.129 314.13C814.011 314.13 811.398 313.161 809.291 311.222C807.269 309.2 806.257 306.713 806.257 303.763C806.257 300.814 807.269 298.37 809.291 296.431C811.398 294.408 814.011 293.397 817.129 293.397C820.248 293.397 822.818 294.408 824.841 296.431C826.948 298.37 828.001 300.814 828.001 303.763C828.001 306.713 826.948 309.2 824.841 311.222C822.818 313.161 820.248 314.13 817.129 314.13ZM825.852 322.474V392.51H808.154V322.474H825.852ZM930.315 321.462C938.912 321.462 945.823 324.117 951.048 329.427C956.358 334.652 959.012 341.984 959.012 351.424V392.51H941.314V353.826C941.314 348.347 939.923 344.176 937.142 341.31C934.361 338.36 930.568 336.885 925.764 336.885C920.96 336.885 917.125 338.36 914.26 341.31C911.479 344.176 910.088 348.347 910.088 353.826V392.51H892.389V353.826C892.389 348.347 890.999 344.176 888.217 341.31C885.436 338.36 881.644 336.885 876.84 336.885C871.952 336.885 868.075 338.36 865.209 341.31C862.428 344.176 861.037 348.347 861.037 353.826V392.51H843.339V322.474H861.037V330.944C863.313 327.994 866.221 325.676 869.76 323.991C873.384 322.305 877.345 321.462 881.644 321.462C887.122 321.462 892.01 322.642 896.308 325.002C900.607 327.277 903.936 330.564 906.295 334.863C908.571 330.817 911.858 327.572 916.156 325.128C920.539 322.684 925.258 321.462 930.315 321.462ZM1040.91 355.975C1040.91 358.503 1040.74 360.779 1040.41 362.801H989.208C989.629 367.858 991.399 371.819 994.517 374.685C997.636 377.55 1001.47 378.983 1006.02 378.983C1012.6 378.983 1017.27 376.16 1020.05 370.513H1039.14C1037.12 377.255 1033.24 382.818 1027.51 387.2C1021.78 391.499 1014.74 393.648 1006.4 393.648C999.658 393.648 993.59 392.173 988.196 389.223C982.887 386.189 978.715 381.933 975.681 376.455C972.731 370.976 971.256 364.655 971.256 357.492C971.256 350.244 972.731 343.881 975.681 338.402C978.631 332.924 982.76 328.71 988.07 325.76C993.38 322.811 999.49 321.336 1006.4 321.336C1013.06 321.336 1019 322.769 1024.23 325.634C1029.54 328.5 1033.62 332.587 1036.49 337.897C1039.44 343.122 1040.91 349.148 1040.91 355.975ZM1022.58 350.918C1022.5 346.367 1020.85 342.743 1017.65 340.046C1014.45 337.265 1010.53 335.874 1005.9 335.874C1001.51 335.874 997.804 337.222 994.77 339.919C991.82 342.532 990.008 346.198 989.334 350.918H1022.58Z" fill="#0038FE" fill-opacity="0.22"/>
<path d="M491.424 408.059L489.419 409.733L490.202 410.671H491.424V408.059ZM478.023 392.004L480.028 390.331L478.979 389.073L477.39 389.471L478.023 392.004ZM443.89 387.58L445.168 385.302L443.89 387.58ZM427.455 371.524L425.202 372.844L425.209 372.856L427.455 371.524ZM427.455 325.002L429.702 326.333L429.709 326.321L427.455 325.002ZM443.89 308.82L442.612 306.543L443.89 308.82ZM489.401 308.82L488.111 311.091L488.123 311.098L489.401 308.82ZM505.709 325.002L503.443 326.301L503.453 326.317L503.462 326.333L505.709 325.002ZM506.72 369.628L504.403 368.424L504.397 368.436L506.72 369.628ZM493.194 385.304L491.688 383.17L489.301 384.855L491.242 387.039L493.194 385.304ZM513.421 408.059V410.671H519.236L515.372 406.324L513.421 408.059ZM443.005 363.686L445.332 362.501L443.005 363.686ZM452.486 374.053L451.136 376.288L451.163 376.304L451.191 376.32L452.486 374.053ZM480.678 374.053L481.994 376.308L482.011 376.298L482.028 376.288L480.678 374.053ZM490.159 363.686L492.486 364.872H492.486L490.159 363.686ZM490.159 332.714L487.833 333.899L487.837 333.908L487.842 333.917L490.159 332.714ZM480.678 322.474L479.362 324.729L480.678 322.474ZM452.486 322.474L451.191 320.206L451.181 320.212L451.171 320.218L452.486 322.474ZM443.005 332.714L445.323 333.917L445.327 333.908L445.332 333.899L443.005 332.714ZM493.429 406.386L480.028 390.331L476.018 393.678L489.419 409.733L493.429 406.386ZM477.39 389.471C473.892 390.345 470.312 390.783 466.645 390.783V396.006C470.733 396.006 474.738 395.517 478.657 394.538L477.39 389.471ZM466.645 390.783C458.814 390.783 451.671 388.95 445.168 385.302L442.612 389.857C449.93 393.962 457.958 396.006 466.645 396.006V390.783ZM445.168 385.302C438.658 381.65 433.514 376.625 429.702 370.193L425.209 372.856C429.488 380.077 435.3 385.755 442.612 389.857L445.168 385.302ZM429.709 370.205C425.918 363.728 423.999 356.394 423.999 348.137H418.776C418.776 357.241 420.903 365.499 425.202 372.844L429.709 370.205ZM423.999 348.137C423.999 339.968 425.915 332.724 429.702 326.333L425.209 323.671C420.905 330.934 418.776 339.112 418.776 348.137H423.999ZM429.709 326.321C433.523 319.806 438.666 314.745 445.168 311.098L442.612 306.543C435.292 310.649 429.479 316.376 425.202 323.683L429.709 326.321ZM445.168 311.098C451.671 307.449 458.814 305.616 466.645 305.616V300.394C457.958 300.394 449.93 302.437 442.612 306.543L445.168 311.098ZM466.645 305.616C474.566 305.616 481.703 307.452 488.111 311.091L490.691 306.549C483.446 302.435 475.412 300.394 466.645 300.394V305.616ZM488.123 311.098C494.62 314.742 499.716 319.797 503.443 326.301L507.975 323.703C503.78 316.385 498.004 310.652 490.679 306.543L488.123 311.098ZM503.462 326.333C507.249 332.724 509.166 339.968 509.166 348.137H514.389C514.389 339.112 512.26 330.934 507.956 323.671L503.462 326.333ZM509.166 348.137C509.166 355.586 507.567 362.333 504.403 368.424L509.038 370.832C512.616 363.944 514.389 356.363 514.389 348.137H509.166ZM504.397 368.436C501.297 374.476 497.065 379.375 491.688 383.17L494.7 387.437C500.784 383.142 505.57 377.59 509.044 370.82L504.397 368.436ZM491.242 387.039L511.469 409.794L515.372 406.324L495.145 383.569L491.242 387.039ZM513.421 405.448H491.424V410.671H513.421V405.448ZM436.98 348.137C436.98 354.376 438.185 359.978 440.678 364.872L445.332 362.501C443.274 358.461 442.203 353.697 442.203 348.137H436.98ZM440.678 364.872C443.161 369.745 446.648 373.576 451.136 376.288L453.837 371.817C450.234 369.641 447.4 366.561 445.332 362.501L440.678 364.872ZM451.191 376.32C455.76 378.931 460.935 380.204 466.645 380.204V374.981C461.736 374.981 457.473 373.894 453.782 371.785L451.191 376.32ZM466.645 380.204C472.354 380.204 477.498 378.931 481.994 376.308L479.362 371.797C475.767 373.894 471.556 374.981 466.645 374.981V380.204ZM482.028 376.288C486.517 373.576 490.004 369.745 492.486 364.872L487.833 362.501C485.764 366.561 482.93 369.641 479.328 371.817L482.028 376.288ZM492.486 364.872C494.979 359.978 496.184 354.376 496.184 348.137H490.961C490.961 353.697 489.891 358.461 487.833 362.501L492.486 364.872ZM496.184 348.137C496.184 341.899 494.98 336.33 492.477 331.51L487.842 333.917C489.89 337.862 490.961 342.575 490.961 348.137H496.184ZM492.486 331.528C490 326.648 486.503 322.848 481.994 320.218L479.362 324.729C482.944 326.819 485.768 329.846 487.833 333.899L492.486 331.528ZM481.994 320.218C477.498 317.595 472.354 316.322 466.645 316.322V321.545C471.556 321.545 475.767 322.632 479.362 324.729L481.994 320.218ZM466.645 316.322C460.935 316.322 455.76 317.595 451.191 320.206L453.782 324.741C457.473 322.632 461.736 321.545 466.645 321.545V316.322ZM451.171 320.218C446.662 322.848 443.164 326.648 440.678 331.528L445.332 333.899C447.397 329.846 450.22 326.819 453.802 324.729L451.171 320.218ZM440.687 331.51C438.185 336.33 436.98 341.899 436.98 348.137H442.203C442.203 342.575 443.274 337.862 445.323 333.917L440.687 331.51ZM591.309 322.474H593.92V319.862H591.309V322.474ZM591.309 392.51V395.121H593.92V392.51H591.309ZM573.484 392.51H570.872V395.121H573.484V392.51ZM573.484 383.661H576.095V375.826L571.394 382.094L573.484 383.661ZM564.508 390.866L565.609 393.234L565.621 393.229L565.633 393.223L564.508 390.866ZM538.086 389.982L536.81 392.26L536.828 392.27L536.845 392.279L538.086 389.982ZM528.099 379.742L525.781 380.944L525.794 380.97L525.808 380.995L528.099 379.742ZM524.559 322.474V319.862H521.948V322.474H524.559ZM542.258 322.474H544.87V319.862H542.258V322.474ZM546.43 373.926L544.505 375.691L544.517 375.704L544.53 375.718L546.43 373.926ZM569.312 373.926L571.212 375.718L571.224 375.704L571.237 375.691L569.312 373.926ZM573.484 322.474V319.862H570.872V322.474H573.484ZM588.697 322.474V392.51H593.92V322.474H588.697ZM591.309 389.898H573.484V395.121H591.309V389.898ZM576.095 392.51V383.661H570.872V392.51H576.095ZM571.394 382.094C569.393 384.763 566.743 386.906 563.383 388.51L565.633 393.223C569.689 391.287 573.024 388.626 575.573 385.227L571.394 382.094ZM563.407 388.499C560.153 390.012 556.571 390.783 552.624 390.783V396.006C557.274 396.006 561.615 395.092 565.609 393.234L563.407 388.499ZM552.624 390.783C547.517 390.783 543.108 389.725 539.327 387.684L536.845 392.279C541.492 394.789 546.776 396.006 552.624 396.006V390.783ZM539.362 387.703C535.6 385.596 532.612 382.549 530.39 378.488L525.808 380.995C528.474 385.868 532.145 389.647 536.81 392.26L539.362 387.703ZM530.417 378.539C528.288 374.432 527.171 369.468 527.171 363.56H521.948C521.948 370.125 523.191 375.949 525.781 380.944L530.417 378.539ZM527.171 363.56V322.474H521.948V363.56H527.171ZM524.559 325.085H542.258V319.862H524.559V325.085ZM539.647 322.474V361.031H544.87V322.474H539.647ZM539.647 361.031C539.647 367.014 541.147 372.027 544.505 375.691L548.355 372.162C546.151 369.757 544.87 366.174 544.87 361.031H539.647ZM544.53 375.718C547.895 379.287 552.429 380.962 557.808 380.962V375.739C553.579 375.739 550.527 374.465 548.33 372.135L544.53 375.718ZM557.808 380.962C563.255 380.962 567.837 379.297 571.212 375.718L567.412 372.135C565.224 374.455 562.136 375.739 557.808 375.739V380.962ZM571.237 375.691C574.595 372.027 576.095 367.014 576.095 361.031H570.872C570.872 366.174 569.591 369.757 567.387 372.162L571.237 375.691ZM576.095 361.031V322.474H570.872V361.031H576.095ZM573.484 325.085H591.309V319.862H573.484V325.085ZM609.909 311.222L608.063 313.069L608.101 313.107L608.141 313.144L609.909 311.222ZM609.909 296.431L611.716 298.317L611.718 298.315L609.909 296.431ZM625.459 296.431L623.612 298.278L623.651 298.316L623.691 298.353L625.459 296.431ZM625.459 311.222L627.266 313.108L627.267 313.106L625.459 311.222ZM626.47 322.474H629.082V319.862H626.47V322.474ZM626.47 392.51V395.121H629.082V392.51H626.47ZM608.771 392.51H606.16V395.121H608.771V392.51ZM608.771 322.474V319.862H606.16V322.474H608.771ZM617.747 311.518C615.22 311.518 613.257 310.754 611.677 309.3L608.141 313.144C610.775 315.567 614.037 316.741 617.747 316.741V311.518ZM611.756 309.376C610.24 307.86 609.487 306.045 609.487 303.763H604.264C604.264 307.382 605.533 310.54 608.063 313.069L611.756 309.376ZM609.487 303.763C609.487 301.483 610.237 299.734 611.716 298.317L608.102 294.546C605.536 297.005 604.264 300.144 604.264 303.763H609.487ZM611.718 298.315C613.303 296.793 615.253 296.009 617.747 296.009V290.786C614.005 290.786 610.729 292.024 608.101 294.547L611.718 298.315ZM617.747 296.009C620.242 296.009 622.126 296.791 623.612 298.278L627.305 294.585C624.746 292.026 621.489 290.786 617.747 290.786V296.009ZM623.691 298.353C625.242 299.78 626.008 301.519 626.008 303.763H631.231C631.231 300.108 629.89 296.959 627.227 294.509L623.691 298.353ZM626.008 303.763C626.008 306.01 625.239 307.814 623.65 309.338L627.267 313.106C629.893 310.585 631.231 307.416 631.231 303.763H626.008ZM623.652 309.337C622.172 310.755 620.275 311.518 617.747 311.518V316.741C621.456 316.741 624.7 315.566 627.266 313.108L623.652 309.337ZM623.859 322.474V392.51H629.082V322.474H623.859ZM626.47 389.898H608.771V395.121H626.47V389.898ZM611.383 392.51V322.474H606.16V392.51H611.383ZM608.771 325.085H626.47V319.862H608.771V325.085ZM660.138 377.972L658.047 376.407L654.922 380.583H660.138V377.972ZM691.364 377.972H693.975V375.36H691.364V377.972ZM691.364 392.51V395.121H693.975V392.51H691.364ZM640.038 392.51H637.426V395.121H640.038V392.51ZM640.038 378.225L637.941 376.668L637.426 377.361V378.225H640.038ZM670.631 337.012L672.728 338.568L675.822 334.4H670.631V337.012ZM640.164 337.012H637.552V339.623H640.164V337.012ZM640.164 322.474V319.862H637.552V322.474H640.164ZM690.984 322.474H693.596V319.862H690.984V322.474ZM690.984 336.759L693.075 338.324L693.596 337.628V336.759H690.984ZM660.138 380.583H691.364V375.36H660.138V380.583ZM688.752 377.972V392.51H693.975V377.972H688.752ZM691.364 389.898H640.038V395.121H691.364V389.898ZM642.649 392.51V378.225H637.426V392.51H642.649ZM642.134 379.781L672.728 338.568L668.534 335.455L637.941 376.668L642.134 379.781ZM670.631 334.4H640.164V339.623H670.631V334.4ZM642.775 337.012V322.474H637.552V337.012H642.775ZM640.164 325.085H690.984V319.862H640.164V325.085ZM688.373 322.474V336.759H693.596V322.474H688.373ZM688.894 335.194L658.047 376.407L662.229 379.536L693.075 338.324L688.894 335.194ZM795.24 304.269H797.851V301.658H795.24V304.269ZM795.24 318.555V321.166H797.851V318.555H795.24ZM771.726 318.555V315.943H769.114V318.555H771.726ZM771.726 392.51V395.121H774.337V392.51H771.726ZM754.027 392.51H751.416V395.121H754.027V392.51ZM754.027 318.555H756.639V315.943H754.027V318.555ZM730.513 318.555H727.902V321.166H730.513V318.555ZM730.513 304.269V301.658H727.902V304.269H730.513ZM792.628 304.269V318.555H797.851V304.269H792.628ZM795.24 315.943H771.726V321.166H795.24V315.943ZM769.114 318.555V392.51H774.337V318.555H769.114ZM771.726 389.898H754.027V395.121H771.726V389.898ZM756.639 392.51V318.555H751.416V392.51H756.639ZM754.027 315.943H730.513V321.166H754.027V315.943ZM733.125 318.555V304.269H727.902V318.555H733.125ZM730.513 306.881H795.24V301.658H730.513V306.881ZM809.291 311.222L807.445 313.069L807.483 313.107L807.523 313.144L809.291 311.222ZM809.291 296.431L811.098 298.317L811.1 298.315L809.291 296.431ZM824.841 296.431L822.994 298.278L823.033 298.316L823.073 298.353L824.841 296.431ZM824.841 311.222L826.648 313.108L826.649 313.106L824.841 311.222ZM825.852 322.474H828.464V319.862H825.852V322.474ZM825.852 392.51V395.121H828.464V392.51H825.852ZM808.154 392.51H805.542V395.121H808.154V392.51ZM808.154 322.474V319.862H805.542V322.474H808.154ZM817.129 311.518C814.602 311.518 812.64 310.754 811.059 309.3L807.523 313.144C810.157 315.567 813.419 316.741 817.129 316.741V311.518ZM811.138 309.376C809.622 307.86 808.869 306.045 808.869 303.763H803.646C803.646 307.382 804.915 310.54 807.445 313.069L811.138 309.376ZM808.869 303.763C808.869 301.483 809.619 299.734 811.098 298.317L807.484 294.546C804.918 297.005 803.646 300.144 803.646 303.763H808.869ZM811.1 298.315C812.685 296.793 814.635 296.009 817.129 296.009V290.786C813.387 290.786 810.111 292.024 807.483 294.547L811.1 298.315ZM817.129 296.009C819.624 296.009 821.508 296.791 822.994 298.278L826.687 294.585C824.128 292.026 820.871 290.786 817.129 290.786V296.009ZM823.073 298.353C824.624 299.78 825.39 301.519 825.39 303.763H830.613C830.613 300.108 829.272 296.959 826.609 294.509L823.073 298.353ZM825.39 303.763C825.39 306.01 824.621 307.814 823.032 309.338L826.649 313.106C829.275 310.585 830.613 307.416 830.613 303.763H825.39ZM823.034 309.337C821.554 310.755 819.657 311.518 817.129 311.518V316.741C820.838 316.741 824.082 315.566 826.648 313.108L823.034 309.337ZM823.241 322.474V392.51H828.464V322.474H823.241ZM825.852 389.898H808.154V395.121H825.852V389.898ZM810.765 392.51V322.474H805.542V392.51H810.765ZM808.154 325.085H825.852V319.862H808.154V325.085ZM951.048 329.427L949.187 331.258L949.201 331.273L949.216 331.288L951.048 329.427ZM959.012 392.51V395.121H961.624V392.51H959.012ZM941.314 392.51H938.702V395.121H941.314V392.51ZM937.142 341.31L935.242 343.102L935.255 343.115L935.268 343.129L937.142 341.31ZM914.26 341.31L912.387 339.49L912.386 339.491L914.26 341.31ZM910.088 392.51V395.121H912.699V392.51H910.088ZM892.389 392.51H889.778V395.121H892.389V392.51ZM888.217 341.31L886.317 343.102L886.33 343.115L886.344 343.129L888.217 341.31ZM865.209 341.31L863.336 339.49L863.335 339.491L865.209 341.31ZM861.037 392.51V395.121H863.649V392.51H861.037ZM843.339 392.51H840.727V395.121H843.339V392.51ZM843.339 322.474V319.862H840.727V322.474H843.339ZM861.037 322.474H863.649V319.862H861.037V322.474ZM861.037 330.944H858.426V338.604L863.105 332.539L861.037 330.944ZM869.76 323.991L868.659 321.623L868.648 321.628L868.637 321.633L869.76 323.991ZM896.308 325.002L895.052 327.291L895.069 327.301L895.086 327.31L896.308 325.002ZM906.295 334.863L904.006 336.119L906.268 340.239L908.572 336.143L906.295 334.863ZM916.156 325.128L914.884 322.848L914.875 322.853L914.865 322.858L916.156 325.128ZM930.315 324.074C938.329 324.074 944.529 326.525 949.187 331.258L952.909 327.595C947.117 321.709 939.494 318.851 930.315 318.851V324.074ZM949.216 331.288C953.902 335.9 956.401 342.487 956.401 351.424H961.624C961.624 341.481 958.813 333.404 952.88 327.565L949.216 331.288ZM956.401 351.424V392.51H961.624V351.424H956.401ZM959.012 389.898H941.314V395.121H959.012V389.898ZM943.925 392.51V353.826H938.702V392.51H943.925ZM943.925 353.826C943.925 347.925 942.423 343.002 939.016 339.491L935.268 343.129C937.423 345.349 938.702 348.769 938.702 353.826H943.925ZM939.042 339.519C935.676 335.949 931.143 334.274 925.764 334.274V339.497C929.993 339.497 933.045 340.772 935.242 343.102L939.042 339.519ZM925.764 334.274C920.383 334.274 915.827 335.949 912.387 339.49L916.133 343.13C918.424 340.772 921.537 339.497 925.764 339.497V334.274ZM912.386 339.491C908.979 343.002 907.477 347.925 907.477 353.826H912.699C912.699 348.769 913.979 345.349 916.134 343.129L912.386 339.491ZM907.477 353.826V392.51H912.699V353.826H907.477ZM910.088 389.898H892.389V395.121H910.088V389.898ZM895.001 392.51V353.826H889.778V392.51H895.001ZM895.001 353.826C895.001 347.925 893.499 343.002 890.091 339.491L886.344 343.129C888.499 345.349 889.778 348.769 889.778 353.826H895.001ZM890.118 339.519C886.752 335.949 882.219 334.274 876.84 334.274V339.497C881.069 339.497 884.121 340.772 886.317 343.102L890.118 339.519ZM876.84 334.274C871.389 334.274 866.785 335.94 863.336 339.49L867.082 343.13C869.364 340.781 872.514 339.497 876.84 339.497V334.274ZM863.335 339.491C859.928 343.002 858.426 347.925 858.426 353.826H863.649C863.649 348.769 864.928 345.349 867.083 343.129L863.335 339.491ZM858.426 353.826V392.51H863.649V353.826H858.426ZM861.037 389.898H843.339V395.121H861.037V389.898ZM845.95 392.51V322.474H840.727V392.51H845.95ZM843.339 325.085H861.037V319.862H843.339V325.085ZM858.426 322.474V330.944H863.649V322.474H858.426ZM863.105 332.539C865.117 329.931 867.694 327.867 870.883 326.348L868.637 321.633C864.747 323.485 861.509 326.057 858.97 329.349L863.105 332.539ZM870.862 326.358C874.115 324.845 877.697 324.074 881.644 324.074V318.851C876.994 318.851 872.653 319.765 868.659 321.623L870.862 326.358ZM881.644 324.074C886.735 324.074 891.182 325.167 895.052 327.291L897.565 322.713C892.838 320.118 887.509 318.851 881.644 318.851V324.074ZM895.086 327.31C898.93 329.345 901.89 332.264 904.006 336.119L908.585 333.606C905.981 328.864 902.283 325.21 897.53 322.694L895.086 327.31ZM908.572 336.143C910.599 332.538 913.533 329.624 917.447 327.398L914.865 322.858C910.183 325.521 906.543 329.096 904.019 333.582L908.572 336.143ZM917.428 327.409C921.419 325.184 925.7 324.074 930.315 324.074V318.851C924.817 318.851 919.659 320.185 914.884 322.848L917.428 327.409ZM1040.41 362.801V365.413H1042.62L1042.98 363.231L1040.41 362.801ZM989.208 362.801V360.19H986.37L986.605 363.018L989.208 362.801ZM994.517 374.685L992.75 376.608V376.608L994.517 374.685ZM1020.05 370.513V367.901H1018.43L1017.71 369.359L1020.05 370.513ZM1039.14 370.513L1041.64 371.263L1042.65 367.901H1039.14V370.513ZM1027.51 387.2L1029.08 389.289L1029.09 389.282L1029.1 389.275L1027.51 387.2ZM988.196 389.223L986.901 391.49L986.922 391.503L986.943 391.514L988.196 389.223ZM975.681 376.455L973.382 377.693L973.389 377.706L973.396 377.72L975.681 376.455ZM975.681 338.402L973.382 337.164L975.681 338.402ZM988.07 325.76L989.338 328.043L988.07 325.76ZM1024.23 325.634L1022.97 327.924L1022.98 327.928L1022.99 327.932L1024.23 325.634ZM1036.49 337.897L1034.19 339.137L1034.2 339.159L1034.21 339.181L1036.49 337.897ZM1022.58 350.918V353.529H1025.24L1025.19 350.87L1022.58 350.918ZM1017.65 340.046L1015.94 342.018L1015.95 342.031L1015.97 342.043L1017.65 340.046ZM994.77 339.919L996.502 341.874L996.505 341.871L994.77 339.919ZM989.334 350.918L986.749 350.549L986.323 353.529H989.334V350.918ZM1038.3 355.975C1038.3 358.391 1038.14 360.519 1037.83 362.372L1042.98 363.231C1043.35 361.038 1043.52 358.615 1043.52 355.975H1038.3ZM1040.41 360.19H989.208V365.413H1040.41V360.19ZM986.605 363.018C987.07 368.591 989.057 373.214 992.75 376.608L996.284 372.762C993.741 370.425 992.189 367.125 991.81 362.584L986.605 363.018ZM992.75 376.608C996.388 379.951 1000.87 381.594 1006.02 381.594V376.372C1002.07 376.372 998.883 375.15 996.284 372.762L992.75 376.608ZM1006.02 381.594C1009.69 381.594 1012.99 380.804 1015.81 379.101C1018.64 377.394 1020.82 374.869 1022.4 371.667L1017.71 369.359C1016.51 371.804 1014.96 373.514 1013.11 374.63C1011.25 375.75 1008.93 376.372 1006.02 376.372V381.594ZM1020.05 373.124H1039.14V367.901H1020.05V373.124ZM1036.64 369.763C1034.78 375.964 1031.23 381.068 1025.93 385.126L1029.1 389.275C1035.26 384.567 1039.46 378.546 1041.64 371.263L1036.64 369.763ZM1025.95 385.111C1020.74 389.017 1014.28 391.036 1006.4 391.036V396.259C1015.21 396.259 1022.83 393.98 1029.08 389.289L1025.95 385.111ZM1006.4 391.036C1000.05 391.036 994.423 389.652 989.449 386.932L986.943 391.514C992.758 394.694 999.264 396.259 1006.4 396.259V391.036ZM989.492 386.956C984.608 384.165 980.774 380.26 977.965 375.189L973.396 377.72C976.656 383.606 981.166 388.213 986.901 391.49L989.492 386.956ZM977.98 375.217C975.264 370.173 973.868 364.289 973.868 357.492H968.645C968.645 365.022 970.198 371.78 973.382 377.693L977.98 375.217ZM973.868 357.492C973.868 350.604 975.267 344.68 977.98 339.641L973.382 337.164C970.195 343.081 968.645 349.883 968.645 357.492H973.868ZM977.98 339.641C980.699 334.591 984.476 330.744 989.338 328.043L986.802 323.478C981.044 326.676 976.562 331.258 973.382 337.164L977.98 339.641ZM989.338 328.043C994.209 325.337 999.872 323.947 1006.4 323.947V318.724C999.108 318.724 992.55 320.284 986.802 323.478L989.338 328.043ZM1006.4 323.947C1012.67 323.947 1018.17 325.293 1022.97 327.924L1025.48 323.344C1019.83 320.244 1013.45 318.724 1006.4 318.724V323.947ZM1022.99 327.932C1027.85 330.556 1031.57 334.276 1034.19 339.137L1038.79 336.656C1035.68 330.899 1031.22 326.443 1025.47 323.336L1022.99 327.932ZM1034.21 339.181C1036.91 343.963 1038.3 349.535 1038.3 355.975H1043.52C1043.52 348.761 1041.96 342.281 1038.76 336.613L1034.21 339.181ZM1025.19 350.87C1025.1 345.639 1023.17 341.276 1019.33 338.048L1015.97 342.043C1018.54 344.209 1019.9 347.094 1019.97 350.966L1025.19 350.87ZM1019.36 338.074C1015.64 334.841 1011.1 333.263 1005.9 333.263V338.485C1009.96 338.485 1013.26 339.688 1015.94 342.018L1019.36 338.074ZM1005.9 333.263C1000.93 333.263 996.587 334.81 993.035 337.968L996.505 341.871C999.021 339.635 1002.1 338.485 1005.9 338.485V333.263ZM993.039 337.965C989.533 341.069 987.492 345.35 986.749 350.549L991.919 351.287C992.525 347.047 994.108 343.995 996.502 341.874L993.039 337.965ZM989.334 353.529H1022.58V348.306H989.334V353.529Z" fill="white" mask="url(#path-10-outside-1_4_133)"/>
<rect x="474" y="555" width="450" height="114" rx="9" fill="#35BD3A"/>
<path d="M549.43 634.371C546.851 634.371 544.519 633.929 542.434 633.046C540.385 632.163 538.759 630.891 537.558 629.23C536.357 627.569 535.738 625.608 535.703 623.347H543.653C543.759 624.866 544.289 626.068 545.243 626.951C546.232 627.834 547.575 628.276 549.271 628.276C551.002 628.276 552.363 627.87 553.352 627.057C554.341 626.209 554.836 625.114 554.836 623.771C554.836 622.676 554.5 621.775 553.829 621.068C553.158 620.361 552.31 619.814 551.285 619.425C550.296 619.001 548.918 618.542 547.151 618.047C544.748 617.34 542.787 616.651 541.268 615.98C539.784 615.273 538.494 614.231 537.399 612.853C536.339 611.44 535.809 609.567 535.809 607.235C535.809 605.044 536.357 603.136 537.452 601.511C538.547 599.886 540.084 598.649 542.063 597.801C544.042 596.918 546.303 596.476 548.847 596.476C552.663 596.476 555.755 597.412 558.122 599.285C560.525 601.122 561.85 603.702 562.097 607.023H553.935C553.864 605.751 553.317 604.709 552.292 603.896C551.303 603.048 549.978 602.624 548.317 602.624C546.868 602.624 545.702 602.995 544.819 603.737C543.971 604.479 543.547 605.557 543.547 606.97C543.547 607.959 543.865 608.79 544.501 609.461C545.172 610.097 545.985 610.627 546.939 611.051C547.928 611.44 549.306 611.899 551.073 612.429C553.476 613.136 555.437 613.842 556.956 614.549C558.475 615.256 559.783 616.316 560.878 617.729C561.973 619.142 562.521 620.997 562.521 623.294C562.521 625.273 562.009 627.11 560.984 628.806C559.959 630.502 558.458 631.862 556.479 632.887C554.5 633.876 552.151 634.371 549.43 634.371ZM577.593 610.733V624.937C577.593 625.926 577.823 626.651 578.282 627.11C578.777 627.534 579.589 627.746 580.72 627.746H584.165V634H579.501C573.247 634 570.12 630.961 570.12 624.884V610.733H566.622V604.638H570.12V597.377H577.593V604.638H584.165V610.733H577.593ZM587.594 619.213C587.594 616.245 588.177 613.613 589.343 611.316C590.544 609.019 592.152 607.253 594.166 606.016C596.215 604.779 598.494 604.161 601.003 604.161C603.193 604.161 605.101 604.603 606.727 605.486C608.387 606.369 609.712 607.482 610.702 608.825V604.638H618.175V634H610.702V629.707C609.748 631.085 608.423 632.233 606.727 633.152C605.066 634.035 603.14 634.477 600.95 634.477C598.476 634.477 596.215 633.841 594.166 632.569C592.152 631.297 590.544 629.513 589.343 627.216C588.177 624.884 587.594 622.216 587.594 619.213ZM610.702 619.319C610.702 617.517 610.348 615.98 609.642 614.708C608.935 613.401 607.981 612.411 606.78 611.74C605.578 611.033 604.289 610.68 602.911 610.68C601.533 610.68 600.261 611.016 599.095 611.687C597.929 612.358 596.975 613.348 596.233 614.655C595.526 615.927 595.173 617.446 595.173 619.213C595.173 620.98 595.526 622.534 596.233 623.877C596.975 625.184 597.929 626.191 599.095 626.898C600.296 627.605 601.568 627.958 602.911 627.958C604.289 627.958 605.578 627.622 606.78 626.951C607.981 626.244 608.935 625.255 609.642 623.983C610.348 622.676 610.702 621.121 610.702 619.319ZM632.842 609.196C633.796 607.641 635.032 606.422 636.552 605.539C638.106 604.656 639.873 604.214 641.852 604.214V612.005H639.891C637.559 612.005 635.792 612.553 634.591 613.648C633.425 614.743 632.842 616.651 632.842 619.372V634H625.422V604.638H632.842V609.196ZM655.488 610.733V624.937C655.488 625.926 655.718 626.651 656.177 627.11C656.672 627.534 657.485 627.746 658.615 627.746H662.06V634H657.396C651.142 634 648.015 630.961 648.015 624.884V610.733H644.517V604.638H648.015V597.377H655.488V604.638H662.06V610.733H655.488ZM711.667 634H704.247L687.446 608.613V634H680.026V596.953H687.446L704.247 622.393V596.953H711.667V634ZM732.038 634.477C729.211 634.477 726.667 633.859 724.406 632.622C722.144 631.35 720.36 629.566 719.053 627.269C717.781 624.972 717.145 622.322 717.145 619.319C717.145 616.316 717.798 613.666 719.106 611.369C720.448 609.072 722.268 607.306 724.565 606.069C726.861 604.797 729.423 604.161 732.25 604.161C735.076 604.161 737.638 604.797 739.935 606.069C742.231 607.306 744.033 609.072 745.341 611.369C746.683 613.666 747.355 616.316 747.355 619.319C747.355 622.322 746.666 624.972 745.288 627.269C743.945 629.566 742.108 631.35 739.776 632.622C737.479 633.859 734.9 634.477 732.038 634.477ZM732.038 628.011C733.38 628.011 734.635 627.693 735.801 627.057C737.002 626.386 737.956 625.396 738.663 624.089C739.369 622.782 739.723 621.192 739.723 619.319C739.723 616.528 738.981 614.39 737.497 612.906C736.048 611.387 734.264 610.627 732.144 610.627C730.024 610.627 728.239 611.387 726.791 612.906C725.377 614.39 724.671 616.528 724.671 619.319C724.671 622.11 725.36 624.266 726.738 625.785C728.151 627.269 729.918 628.011 732.038 628.011ZM793.502 604.638L784.916 634H776.913L771.56 613.489L766.207 634H758.151L749.512 604.638H757.038L762.232 627.004L767.85 604.638H775.694L781.206 626.951L786.4 604.638H793.502ZM811.205 603.26H820.586L832.14 615.132L820.586 627.004H811.205L822.812 615.132L811.205 603.26ZM841.277 603.26H850.658L862.212 615.132L850.658 627.004H841.277L852.884 615.132L841.277 603.26ZM871.348 603.26H880.729L892.283 615.132L880.729 627.004H871.348L882.955 615.132L871.348 603.26Z" fill="white"/>
<path d="M646.258 991.05V998H645.118V993.24L642.998 998H642.208L640.078 993.24V998H638.938V991.05H640.168L642.608 996.5L645.038 991.05H646.258ZM647.377 995.22C647.377 994.667 647.49 994.177 647.717 993.75C647.95 993.323 648.264 992.993 648.657 992.76C649.057 992.52 649.497 992.4 649.977 992.4C650.41 992.4 650.787 992.487 651.107 992.66C651.434 992.827 651.694 993.037 651.887 993.29V992.49H653.037V998H651.887V997.18C651.694 997.44 651.43 997.657 651.097 997.83C650.764 998.003 650.384 998.09 649.957 998.09C649.484 998.09 649.05 997.97 648.657 997.73C648.264 997.483 647.95 997.143 647.717 996.71C647.49 996.27 647.377 995.773 647.377 995.22ZM651.887 995.24C651.887 994.86 651.807 994.53 651.647 994.25C651.494 993.97 651.29 993.757 651.037 993.61C650.784 993.463 650.51 993.39 650.217 993.39C649.924 993.39 649.65 993.463 649.397 993.61C649.144 993.75 648.937 993.96 648.777 994.24C648.624 994.513 648.547 994.84 648.547 995.22C648.547 995.6 648.624 995.933 648.777 996.22C648.937 996.507 649.144 996.727 649.397 996.88C649.657 997.027 649.93 997.1 650.217 997.1C650.51 997.1 650.784 997.027 651.037 996.88C651.29 996.733 651.494 996.52 651.647 996.24C651.807 995.953 651.887 995.62 651.887 995.24ZM654.154 995.22C654.154 994.667 654.268 994.177 654.494 993.75C654.728 993.323 655.041 992.993 655.434 992.76C655.834 992.52 656.278 992.4 656.764 992.4C657.124 992.4 657.478 992.48 657.824 992.64C658.178 992.793 658.458 993 658.664 993.26V990.6H659.814V998H658.664V997.17C658.478 997.437 658.218 997.657 657.884 997.83C657.558 998.003 657.181 998.09 656.754 998.09C656.274 998.09 655.834 997.97 655.434 997.73C655.041 997.483 654.728 997.143 654.494 996.71C654.268 996.27 654.154 995.773 654.154 995.22ZM658.664 995.24C658.664 994.86 658.584 994.53 658.424 994.25C658.271 993.97 658.068 993.757 657.814 993.61C657.561 993.463 657.288 993.39 656.994 993.39C656.701 993.39 656.428 993.463 656.174 993.61C655.921 993.75 655.714 993.96 655.554 994.24C655.401 994.513 655.324 994.84 655.324 995.22C655.324 995.6 655.401 995.933 655.554 996.22C655.714 996.507 655.921 996.727 656.174 996.88C656.434 997.027 656.708 997.1 656.994 997.1C657.288 997.1 657.561 997.027 657.814 996.88C658.068 996.733 658.271 996.52 658.424 996.24C658.584 995.953 658.664 995.62 658.664 995.24ZM666.362 995.11C666.362 995.317 666.348 995.503 666.322 995.67H662.112C662.145 996.11 662.308 996.463 662.602 996.73C662.895 996.997 663.255 997.13 663.682 997.13C664.295 997.13 664.728 996.873 664.982 996.36H666.212C666.045 996.867 665.742 997.283 665.302 997.61C664.868 997.93 664.328 998.09 663.682 998.09C663.155 998.09 662.682 997.973 662.262 997.74C661.848 997.5 661.522 997.167 661.282 996.74C661.048 996.307 660.932 995.807 660.932 995.24C660.932 994.673 661.045 994.177 661.272 993.75C661.505 993.317 661.828 992.983 662.242 992.75C662.662 992.517 663.142 992.4 663.682 992.4C664.202 992.4 664.665 992.513 665.072 992.74C665.478 992.967 665.795 993.287 666.022 993.7C666.248 994.107 666.362 994.577 666.362 995.11ZM665.172 994.75C665.165 994.33 665.015 993.993 664.722 993.74C664.428 993.487 664.065 993.36 663.632 993.36C663.238 993.36 662.902 993.487 662.622 993.74C662.342 993.987 662.175 994.323 662.122 994.75H665.172ZM677.481 992.49L675.771 998H674.571L673.461 993.93L672.351 998H671.151L669.431 992.49H670.591L671.741 996.92L672.911 992.49H674.101L675.221 996.9L676.361 992.49H677.481ZM678.913 991.76C678.706 991.76 678.533 991.69 678.393 991.55C678.253 991.41 678.183 991.237 678.183 991.03C678.183 990.823 678.253 990.65 678.393 990.51C678.533 990.37 678.706 990.3 678.913 990.3C679.113 990.3 679.283 990.37 679.423 990.51C679.563 990.65 679.633 990.823 679.633 991.03C679.633 991.237 679.563 991.41 679.423 991.55C679.283 991.69 679.113 991.76 678.913 991.76ZM679.473 992.49V998H678.333V992.49H679.473ZM682.3 993.42V996.47C682.3 996.677 682.346 996.827 682.44 996.92C682.54 997.007 682.706 997.05 682.94 997.05H683.64V998H682.74C682.226 998 681.833 997.88 681.56 997.64C681.286 997.4 681.15 997.01 681.15 996.47V993.42H680.5V992.49H681.15V991.12H682.3V992.49H683.64V993.42H682.3ZM687.54 992.4C687.96 992.4 688.334 992.49 688.66 992.67C688.994 992.85 689.254 993.117 689.44 993.47C689.634 993.823 689.73 994.25 689.73 994.75V998H688.6V994.92C688.6 994.427 688.477 994.05 688.23 993.79C687.984 993.523 687.647 993.39 687.22 993.39C686.794 993.39 686.454 993.523 686.2 993.79C685.954 994.05 685.83 994.427 685.83 994.92V998H684.69V990.6H685.83V993.13C686.024 992.897 686.267 992.717 686.56 992.59C686.86 992.463 687.187 992.4 687.54 992.4ZM695.63 998.7H705.63V988.7H695.63V998.7ZM710.118 993.31C710.311 993.043 710.574 992.827 710.908 992.66C711.248 992.487 711.624 992.4 712.038 992.4C712.524 992.4 712.964 992.517 713.358 992.75C713.751 992.983 714.061 993.317 714.288 993.75C714.514 994.177 714.628 994.667 714.628 995.22C714.628 995.773 714.514 996.27 714.288 996.71C714.061 997.143 713.748 997.483 713.348 997.73C712.954 997.97 712.518 998.09 712.038 998.09C711.611 998.09 711.231 998.007 710.898 997.84C710.571 997.673 710.311 997.46 710.118 997.2V998H708.978V990.6H710.118V993.31ZM713.468 995.22C713.468 994.84 713.388 994.513 713.228 994.24C713.074 993.96 712.868 993.75 712.608 993.61C712.354 993.463 712.081 993.39 711.788 993.39C711.501 993.39 711.228 993.463 710.968 993.61C710.714 993.757 710.508 993.97 710.348 994.25C710.194 994.53 710.118 994.86 710.118 995.24C710.118 995.62 710.194 995.953 710.348 996.24C710.508 996.52 710.714 996.733 710.968 996.88C711.228 997.027 711.501 997.1 711.788 997.1C712.081 997.1 712.354 997.027 712.608 996.88C712.868 996.727 713.074 996.507 713.228 996.22C713.388 995.933 713.468 995.6 713.468 995.22ZM720.715 992.49L717.335 1000.59H716.155L717.275 997.91L715.105 992.49H716.375L717.925 996.69L719.535 992.49H720.715ZM728.363 996.58H725.453L724.953 998H723.763L726.253 991.04H727.573L730.063 998H728.863L728.363 996.58ZM728.043 995.65L726.913 992.42L725.773 995.65H728.043ZM733.926 992.4C734.359 992.4 734.746 992.49 735.086 992.67C735.432 992.85 735.702 993.117 735.896 993.47C736.089 993.823 736.186 994.25 736.186 994.75V998H735.056V994.92C735.056 994.427 734.932 994.05 734.686 993.79C734.439 993.523 734.102 993.39 733.676 993.39C733.249 993.39 732.909 993.523 732.656 993.79C732.409 994.05 732.286 994.427 732.286 994.92V998H731.146V992.49H732.286V993.12C732.472 992.893 732.709 992.717 732.996 992.59C733.289 992.463 733.599 992.4 733.926 992.4ZM742.63 992.49V998H741.49V997.35C741.31 997.577 741.073 997.757 740.78 997.89C740.493 998.017 740.186 998.08 739.86 998.08C739.426 998.08 739.036 997.99 738.69 997.81C738.35 997.63 738.08 997.363 737.88 997.01C737.686 996.657 737.59 996.23 737.59 995.73V992.49H738.72V995.56C738.72 996.053 738.843 996.433 739.09 996.7C739.336 996.96 739.673 997.09 740.1 997.09C740.526 997.09 740.863 996.96 741.11 996.7C741.363 996.433 741.49 996.053 741.49 995.56V992.49H742.63ZM745.274 993.29C745.44 993.01 745.66 992.793 745.934 992.64C746.214 992.48 746.544 992.4 746.924 992.4V993.58H746.634C746.187 993.58 745.847 993.693 745.614 993.92C745.387 994.147 745.274 994.54 745.274 995.1V998H744.134V992.49H745.274V993.29ZM747.592 995.22C747.592 994.667 747.705 994.177 747.932 993.75C748.165 993.323 748.478 992.993 748.872 992.76C749.272 992.52 749.712 992.4 750.192 992.4C750.625 992.4 751.002 992.487 751.322 992.66C751.648 992.827 751.908 993.037 752.102 993.29V992.49H753.252V998H752.102V997.18C751.908 997.44 751.645 997.657 751.312 997.83C750.978 998.003 750.598 998.09 750.172 998.09C749.698 998.09 749.265 997.97 748.872 997.73C748.478 997.483 748.165 997.143 747.932 996.71C747.705 996.27 747.592 995.773 747.592 995.22ZM752.102 995.24C752.102 994.86 752.022 994.53 751.862 994.25C751.708 993.97 751.505 993.757 751.252 993.61C750.998 993.463 750.725 993.39 750.432 993.39C750.138 993.39 749.865 993.463 749.612 993.61C749.358 993.75 749.152 993.96 748.992 994.24C748.838 994.513 748.762 994.84 748.762 995.22C748.762 995.6 748.838 995.933 748.992 996.22C749.152 996.507 749.358 996.727 749.612 996.88C749.872 997.027 750.145 997.1 750.432 997.1C750.725 997.1 750.998 997.027 751.252 996.88C751.505 996.733 751.708 996.52 751.862 996.24C752.022 995.953 752.102 995.62 752.102 995.24ZM756.969 992.4C757.396 992.4 757.772 992.487 758.099 992.66C758.432 992.827 758.692 993.037 758.879 993.29V992.49H760.029V998.09C760.029 998.597 759.922 999.047 759.709 999.44C759.496 999.84 759.186 1000.15 758.779 1000.38C758.379 1000.61 757.899 1000.72 757.339 1000.72C756.592 1000.72 755.972 1000.54 755.479 1000.19C754.986 999.843 754.706 999.37 754.639 998.77H755.769C755.856 999.057 756.039 999.287 756.319 999.46C756.606 999.64 756.946 999.73 757.339 999.73C757.799 999.73 758.169 999.59 758.449 999.31C758.736 999.03 758.879 998.623 758.879 998.09V997.17C758.686 997.43 758.422 997.65 758.089 997.83C757.762 998.003 757.389 998.09 756.969 998.09C756.489 998.09 756.049 997.97 755.649 997.73C755.256 997.483 754.942 997.143 754.709 996.71C754.482 996.27 754.369 995.773 754.369 995.22C754.369 994.667 754.482 994.177 754.709 993.75C754.942 993.323 755.256 992.993 755.649 992.76C756.049 992.52 756.489 992.4 756.969 992.4ZM758.879 995.24C758.879 994.86 758.799 994.53 758.639 994.25C758.486 993.97 758.282 993.757 758.029 993.61C757.776 993.463 757.502 993.39 757.209 993.39C756.916 993.39 756.642 993.463 756.389 993.61C756.136 993.75 755.929 993.96 755.769 994.24C755.616 994.513 755.539 994.84 755.539 995.22C755.539 995.6 755.616 995.933 755.769 996.22C755.929 996.507 756.136 996.727 756.389 996.88C756.649 997.027 756.922 997.1 757.209 997.1C757.502 997.1 757.776 997.027 758.029 996.88C758.282 996.733 758.486 996.52 758.639 996.24C758.799 995.953 758.879 995.62 758.879 995.24ZM766.414 998.07C765.947 998.07 765.527 997.99 765.154 997.83C764.781 997.663 764.487 997.43 764.274 997.13C764.061 996.83 763.954 996.48 763.954 996.08H765.174C765.201 996.38 765.317 996.627 765.524 996.82C765.737 997.013 766.034 997.11 766.414 997.11C766.807 997.11 767.114 997.017 767.334 996.83C767.554 996.637 767.664 996.39 767.664 996.09C767.664 995.857 767.594 995.667 767.454 995.52C767.321 995.373 767.151 995.26 766.944 995.18C766.744 995.1 766.464 995.013 766.104 994.92C765.651 994.8 765.281 994.68 764.994 994.56C764.714 994.433 764.474 994.24 764.274 993.98C764.074 993.72 763.974 993.373 763.974 992.94C763.974 992.54 764.074 992.19 764.274 991.89C764.474 991.59 764.754 991.36 765.114 991.2C765.474 991.04 765.891 990.96 766.364 990.96C767.037 990.96 767.587 991.13 768.014 991.47C768.447 991.803 768.687 992.263 768.734 992.85H767.474C767.454 992.597 767.334 992.38 767.114 992.2C766.894 992.02 766.604 991.93 766.244 991.93C765.917 991.93 765.651 992.013 765.444 992.18C765.237 992.347 765.134 992.587 765.134 992.9C765.134 993.113 765.197 993.29 765.324 993.43C765.457 993.563 765.624 993.67 765.824 993.75C766.024 993.83 766.297 993.917 766.644 994.01C767.104 994.137 767.477 994.263 767.764 994.39C768.057 994.517 768.304 994.713 768.504 994.98C768.711 995.24 768.814 995.59 768.814 996.03C768.814 996.383 768.717 996.717 768.524 997.03C768.337 997.343 768.061 997.597 767.694 997.79C767.334 997.977 766.907 998.07 766.414 998.07ZM770.739 991.76C770.533 991.76 770.359 991.69 770.219 991.55C770.079 991.41 770.009 991.237 770.009 991.03C770.009 990.823 770.079 990.65 770.219 990.51C770.359 990.37 770.533 990.3 770.739 990.3C770.939 990.3 771.109 990.37 771.249 990.51C771.389 990.65 771.459 990.823 771.459 991.03C771.459 991.237 771.389 991.41 771.249 991.55C771.109 991.69 770.939 991.76 770.739 991.76ZM771.299 992.49V998H770.159V992.49H771.299ZM775.576 992.4C776.009 992.4 776.396 992.49 776.736 992.67C777.083 992.85 777.353 993.117 777.546 993.47C777.739 993.823 777.836 994.25 777.836 994.75V998H776.706V994.92C776.706 994.427 776.583 994.05 776.336 993.79C776.089 993.523 775.753 993.39 775.326 993.39C774.899 993.39 774.559 993.523 774.306 993.79C774.059 994.05 773.936 994.427 773.936 994.92V998H772.796V992.49H773.936V993.12C774.123 992.893 774.359 992.717 774.646 992.59C774.939 992.463 775.249 992.4 775.576 992.4ZM781.51 992.4C781.937 992.4 782.313 992.487 782.64 992.66C782.973 992.827 783.233 993.037 783.42 993.29V992.49H784.57V998.09C784.57 998.597 784.463 999.047 784.25 999.44C784.037 999.84 783.727 1000.15 783.32 1000.38C782.92 1000.61 782.44 1000.72 781.88 1000.72C781.133 1000.72 780.513 1000.54 780.02 1000.19C779.527 999.843 779.247 999.37 779.18 998.77H780.31C780.397 999.057 780.58 999.287 780.86 999.46C781.147 999.64 781.487 999.73 781.88 999.73C782.34 999.73 782.71 999.59 782.99 999.31C783.277 999.03 783.42 998.623 783.42 998.09V997.17C783.227 997.43 782.963 997.65 782.63 997.83C782.303 998.003 781.93 998.09 781.51 998.09C781.03 998.09 780.59 997.97 780.19 997.73C779.797 997.483 779.483 997.143 779.25 996.71C779.023 996.27 778.91 995.773 778.91 995.22C778.91 994.667 779.023 994.177 779.25 993.75C779.483 993.323 779.797 992.993 780.19 992.76C780.59 992.52 781.03 992.4 781.51 992.4ZM783.42 995.24C783.42 994.86 783.34 994.53 783.18 994.25C783.027 993.97 782.823 993.757 782.57 993.61C782.317 993.463 782.043 993.39 781.75 993.39C781.457 993.39 781.183 993.463 780.93 993.61C780.677 993.75 780.47 993.96 780.31 994.24C780.157 994.513 780.08 994.84 780.08 995.22C780.08 995.6 780.157 995.933 780.31 996.22C780.47 996.507 780.677 996.727 780.93 996.88C781.19 997.027 781.463 997.1 781.75 997.1C782.043 997.1 782.317 997.027 782.57 996.88C782.823 996.733 783.027 996.52 783.18 996.24C783.34 995.953 783.42 995.62 783.42 995.24ZM788.917 992.4C789.337 992.4 789.711 992.49 790.037 992.67C790.371 992.85 790.631 993.117 790.817 993.47C791.011 993.823 791.107 994.25 791.107 994.75V998H789.977V994.92C789.977 994.427 789.854 994.05 789.607 993.79C789.361 993.523 789.024 993.39 788.597 993.39C788.171 993.39 787.831 993.523 787.577 993.79C787.331 994.05 787.207 994.427 787.207 994.92V998H786.067V990.6H787.207V993.13C787.401 992.897 787.644 992.717 787.937 992.59C788.237 992.463 788.564 992.4 788.917 992.4Z" fill="#858585"/>
</g>
<defs>
<clipPath id="clip0_4_133">
<rect width="1440" height="1024" fill="white"/>
</clipPath>
</defs>
</svg>
